<?xml version="1.0" standalone="no"?><!DOCTYPE svg PUBLIC "-//W3C//DTD SVG 1.1//EN" "http://www.w3.org/Graphics/SVG/1.1/DTD/svg11.dtd"><svg t="1661824826947" class="icon" viewBox="0 0 1024 1024" version="1.1" xmlns="http://www.w3.org/2000/svg" p-id="1557" xmlns:xlink="http://www.w3.org/1999/xlink" width="200" height="200"><path d="M512 492.1344a32.9728 32.9728 0 0 1-32.8704-32.8704V220.16A32.9728 32.9728 0 0 1 512 187.2896a32.9728 32.9728 0 0 1 32.8704 32.8704v239.104c0 18.1248-14.7456 32.8704-32.8704 32.8704z m254.464 0a32.9728 32.9728 0 0 1-32.8704-32.8704V339.7632c0-18.1248 14.848-32.8704 32.8704-32.8704s32.8704 14.848 32.8704 32.8704v119.5008c0 18.1248-14.7456 32.8704-32.8704 32.8704z m-508.928 0a32.9728 32.9728 0 0 1-32.8704-32.8704V339.7632c0-18.1248 14.848-32.8704 32.8704-32.8704s32.8704 14.848 32.8704 32.8704v119.5008c0.1024 18.1248-14.7456 32.8704-32.8704 32.8704z" fill="#e6e6e6" p-id="1558"></path><path d="M397.0048 240.7424a32.9728 32.9728 0 0 1-32.8704-32.8704V174.08c0-59.0848 48.0256-107.1104 107.1104-107.1104h81.6128c59.0848 0 107.1104 48.0256 107.1104 107.1104v32.4608c0 18.1248-14.848 32.8704-32.8704 32.8704s-32.8704-14.848-32.8704-32.8704V174.08c0-22.7328-18.6368-41.2672-41.2672-41.2672h-81.6128C448.6144 132.8128 430.08 151.4496 430.08 174.08v33.6896c-0.2048 18.1248-15.0528 32.9728-33.0752 32.9728zM906.9568 433.0496H117.0432C80.6912 433.0496 51.2 462.5408 51.2 498.8928v392.2944c0 36.352 29.4912 65.8432 65.8432 65.8432h789.9136c36.352 0 65.8432-29.4912 65.8432-65.8432V498.8928c0-36.352-29.4912-65.8432-65.8432-65.8432zM536.1664 709.2224H377.0368c-18.1248 0-32.8704-14.848-32.8704-32.8704s14.848-32.8704 32.8704-32.8704h159.1296c18.2272 0 32.8704 14.7456 32.8704 32.8704a32.768 32.768 0 0 1-32.8704 32.8704z m141.2096-20.3776c-1.8432 3.9936-4.096 7.5776-7.2704 10.6496-6.2464 6.2464-14.4384 9.728-23.2448 9.728-4.4032 0-8.704-0.8192-12.6976-2.6624a32.26624 32.26624 0 0 1-17.7152-17.7152c-1.6384-3.9936-2.6624-8.192-2.6624-12.6976 0-2.1504 0.3072-4.3008 0.6144-6.4512a37.94944 37.94944 0 0 1 4.9152-11.776c1.3312-1.6384 2.6624-3.4816 4.096-4.9152 1.4336-1.4336 3.2768-2.7648 5.12-4.096 1.6384-1.1264 3.584-2.1504 5.632-2.9696 1.9456-0.8192 4.096-1.4336 6.2464-1.9456 4.096-0.8192 8.6016-0.8192 12.8 0a37.94944 37.94944 0 0 1 11.776 4.9152c1.8432 1.3312 3.4816 2.6624 4.9152 4.096 1.4336 1.4336 2.9696 3.2768 4.096 4.9152 1.1264 1.8432 2.1504 3.7888 2.9696 5.7344 0.8192 1.9456 1.4336 4.096 1.9456 6.0416 0.3072 2.1504 0.6144 4.3008 0.6144 6.4512 0.3072 4.5056-0.512 8.704-2.1504 12.6976z" fill="#e6e6e6" p-id="1559"></path></svg>